PathFileType  4	(X/Y/Z) C:\Users\antoi\Documents\MyRepositories\mobilecap\ResultsAnalysis
DataRate	CameraRate	NumFrames	NumMarkers	Units	OrigDataRate	OrigDataStartFrame	OrigNumFrames
100.0	100.0	7	51	mm	100.0	1015	1623
Frame#	Time	r_knee			r_shank_antsup			r_ankle			r_calc			r_5meta			r_toe			L_knee			L_shank_antsup			L_ankle			L_calc			L_5meta			L_toe			r_sh2			r_sh3			r_sh4			L_sh2			L_sh3			r_thigh1			r_thigh2			r_thigh3			r_thigh4			r_thigh5			L_thigh1			L_thigh2			L_thigh3			L_thigh4			r.ASIS			r.PSIS			L.ASIS			L.PSIS			C7			R_Shoulder			L_Shoulder			R_Sternum			L_Sternum			R_humerus			R_elbow_med			R_elbow_lat			R_forearm			R_wrist_radius			R_wrist_ulna			L_humerus			L_elbow_med			L_elbow_lat			L_forearm			L_wrist_radius			L_wrist_ulna			R_HJC			L_HJC			R_HJC_reg			L_HJC_reg			
		X1	Y1	Z1	X2	Y2	Z2	X3	Y3	Z3	X4	Y4	Z4	X5	Y5	Z5	X6	Y6	Z6	X7	Y7	Z7	X8	Y8	Z8	X9	Y9	Z9	X10	Y10	Z10	X11	Y11	Z11	X12	Y12	Z12	X13	Y13	Z13	X14	Y14	Z14	X15	Y15	Z15	X16	Y16	Z16	X17	Y17	Z17	X18	Y18	Z18	X19	Y19	Z19	X20	Y20	Z20	X21	Y21	Z21	X22	Y22	Z22	X23	Y23	Z23	X24	Y24	Z24	X25	Y25	Z25	X26	Y26	Z26	X27	Y27	Z27	X28	Y28	Z28	X29	Y29	Z29	X30	Y30	Z30	X31	Y31	Z31	X32	Y32	Z32	X33	Y33	Z33	X34	Y34	Z34	X35	Y35	Z35	X36	Y36	Z36	X37	Y37	Z37	X38	Y38	Z38	X39	Y39	Z39	X40	Y40	Z40	X41	Y41	Z41	X42	Y42	Z42	X43	Y43	Z43	X44	Y44	Z44	X45	Y45	Z45	X46	Y46	Z46	X47	Y47	Z47	X48	Y48	Z48	X49	Y49	Z49	X50	Y50	Z50	X51	Y51	Z51	

1015	10.14000000	-117.39663	492.32827	-392.59936	-109.95433	417.44438	-361.23750	-291.15308	105.39084	-383.89669	-347.81419	54.12650	-431.61650	-167.09449	37.68320	-310.28480	-121.90165	62.44441	-362.09050	-105.98618	493.35225	-888.08357	-106.66444	383.04434	-914.61276	-273.42174	101.47552	-891.59661	-342.32164	54.62479	-853.16652	-130.66664	32.13330	-947.59992	-100.88612	58.40292	-884.91243	-157.74237	314.63561	-353.12523	-178.07911	448.27666	-367.45235	-232.98370	346.21336	-364.44559	-185.20263	427.13323	-907.96290	-231.32212	316.34318	-911.70710	-285.05909	754.63466	-420.62067	-199.21172	690.42412	-405.84114	-219.42934	628.62526	-378.73139	-352.21405	662.41807	-428.05724	-258.38356	597.93630	-399.06240	-273.76505	758.87170	-850.60766	-165.75283	673.45168	-872.45923	-350.64362	667.36593	-851.05533	-241.04817	589.72555	-884.92076	-290.75945	822.66652	-507.66402	-445.15104	930.31537	-593.20959	-283.50172	818.32316	-764.09093	-444.90311	927.12108	-696.53776	-160.59319	1341.95032	-650.68740	-113.38680	1283.18188	-472.54479	-80.92111	1280.54292	-805.71934	-41.87917	1224.18802	-607.70660	-39.44882	1220.87862	-660.91986	-258.95867	1070.04149	-367.10785	-332.30711	990.91037	-431.17091	-320.17342	1002.87910	-344.65135	-251.54940	855.77963	-322.52629	-201.12132	758.77452	-326.51002	-242.61040	748.07645	-314.31726	-190.77756	1065.28044	-923.45762	-276.20636	992.12845	-879.66911	-250.24980	999.97748	-948.01281	-206.85126	830.78582	-981.94024	-169.72571	741.70665	-982.57573	-206.72987	730.36942	-990.47625	-397.03719	781.88176	-516.53964	-387.62150	776.06359	-746.64125	-383.87527	784.25701	-542.97852	-383.46973	779.02552	-712.23108	
1016	10.15000000	-119.84736	493.99454	-393.20344	-112.42093	419.03274	-361.77316	-291.32951	105.24598	-383.96275	-347.83773	54.14185	-431.54239	-167.06265	37.63076	-310.23459	-121.93841	62.46906	-362.05715	-108.10572	494.71868	-887.77870	-108.35946	384.48212	-914.69296	-273.59771	101.35624	-891.78777	-342.37433	54.57145	-853.22577	-130.66245	32.11071	-947.61240	-100.89471	58.41614	-885.01072	-159.40561	315.98271	-353.32580	-180.54256	449.35570	-367.92854	-234.80878	346.87237	-364.61476	-187.21038	427.80513	-907.91379	-232.65785	316.56620	-911.78329	-283.46065	759.34094	-420.81794	-198.61236	693.61667	-405.97190	-219.79663	631.97960	-379.19586	-352.01490	668.13869	-428.79342	-259.67644	601.53749	-398.55479	-271.86968	763.68400	-851.10714	-165.17508	676.33201	-872.84769	-350.03547	673.28842	-851.24372	-241.46726	593.54837	-884.13271	-289.82235	829.37852	-508.76740	-443.44264	937.69439	-593.40057	-281.56035	825.80240	-764.57469	-443.01408	934.47733	-696.92104	-162.25737	1351.73378	-650.68729	-114.89567	1293.54716	-472.27107	-82.36397	1290.86878	-805.69771	-42.88635	1234.83906	-607.57488	-40.41698	1231.46847	-660.94377	-259.30303	1079.00686	-367.11987	-332.12595	999.97576	-431.64283	-320.23083	1011.73051	-345.05255	-252.78239	864.09782	-322.98973	-203.28970	766.45051	-327.15355	-244.85101	756.24394	-315.08417	-191.17044	1074.83966	-923.24337	-276.31734	1001.73141	-879.40085	-250.43545	1009.32429	-947.60150	-208.15923	839.95614	-981.54045	-171.84679	750.25467	-982.11937	-208.94469	739.58558	-990.36001	-395.85523	788.71515	-517.49003	-385.98995	783.73714	-747.59210	-382.64216	791.93782	-544.15018	-381.94295	786.69013	-713.00572	
1017	10.16000000	-122.37281	495.64049	-393.89559	-114.93631	420.61284	-362.31429	-291.56395	105.23052	-383.82530	-347.86655	54.15368	-431.46109	-167.01874	37.62661	-310.18603	-121.96999	62.50650	-362.03138	-110.30482	496.16740	-887.40716	-109.99668	386.11037	-914.88175	-273.79179	101.22951	-892.02723	-342.43552	54.52515	-853.33515	-130.66078	32.07929	-947.63294	-100.88498	58.42635	-885.02369	-161.17847	317.24678	-353.63478	-183.12625	450.51116	-368.46584	-236.78285	347.42583	-365.10294	-189.32438	428.51455	-907.91735	-233.95306	316.98382	-911.89765	-281.77255	764.05939	-420.84537	-198.06027	696.93315	-406.47788	-219.87693	635.50894	-379.51039	-351.83414	673.93165	-429.53071	-260.85649	605.61769	-398.69535	-269.96103	768.31048	-851.53500	-164.56298	679.20818	-873.09820	-349.45139	679.11583	-851.11060	-242.06815	597.59770	-883.77905	-288.12448	836.68255	-509.11849	-441.67662	945.02173	-593.60572	-279.59486	833.25282	-764.85995	-441.08221	941.88933	-697.32226	-164.13031	1361.51897	-650.73477	-116.44216	1303.99910	-472.07457	-83.88415	1301.26728	-805.75221	-43.97912	1245.55586	-607.48906	-41.62727	1242.28543	-661.00450	-259.63653	1088.26923	-367.19840	-331.96132	1009.12846	-431.96289	-320.31472	1020.65800	-345.48840	-254.04051	872.57823	-323.55792	-205.32863	774.32124	-327.78091	-247.16460	764.43146	-315.89245	-191.57418	1084.43658	-923.00061	-276.42283	1011.22255	-878.82115	-250.66282	1018.64223	-947.10918	-209.40927	849.17149	-980.95908	-173.88154	758.86447	-981.42554	-211.15417	748.81904	-990.08373	-394.11855	795.99096	-517.90130	-384.05562	791.19453	-747.99847	-380.92464	799.20222	-544.67240	-379.95684	794.10334	-713.49240	
1018	10.17000000	-124.97720	497.36701	-394.50046	-117.44556	422.13998	-362.98402	-291.81750	105.24629	-383.61493	-347.90578	54.17012	-431.42493	-166.99920	37.63897	-310.15872	-121.99724	62.52578	-362.01845	-112.61729	497.69032	-886.97777	-111.83831	387.43196	-914.75346	-273.92784	101.12214	-892.27875	-342.46146	54.52343	-853.48651	-130.66314	32.03970	-947.65279	-100.88584	58.43598	-885.02917	-163.08686	318.45850	-353.94856	-185.98443	451.48773	-369.13697	-238.87637	348.02003	-365.73253	-191.61421	429.08040	-907.73647	-235.36672	317.42250	-911.81275	-279.99986	768.71165	-421.18536	-197.60358	700.30894	-407.24165	-219.90321	639.06683	-379.92444	-351.58199	679.87617	-430.32684	-261.81085	610.19385	-399.68619	-267.80391	772.74348	-851.82825	-163.98011	682.00344	-873.31237	-348.87203	684.96504	-850.91621	-242.86848	601.61287	-883.69837	-285.35180	844.67664	-508.58731	-439.87974	952.44111	-593.78279	-277.50792	840.65033	-764.79539	-439.10039	949.29760	-697.66606	-166.14235	1371.24578	-650.78817	-118.12279	1314.40856	-471.97106	-85.41873	1311.73373	-805.92753	-45.17009	1256.41179	-607.43165	-42.82705	1253.23448	-660.93124	-260.02493	1097.61667	-367.39000	-332.21502	1018.48336	-432.08391	-320.42523	1029.66062	-346.01019	-255.29497	881.16468	-324.09556	-207.36464	782.27274	-328.36426	-249.38465	772.74599	-316.55003	-191.99102	1094.06185	-922.73968	-276.49071	1020.75664	-878.14714	-250.85540	1028.02223	-946.49344	-210.63241	858.38040	-980.19967	-175.92104	767.50308	-980.49458	-213.39825	757.97739	-989.41172	-391.61729	803.83674	-517.57718	-381.71498	798.36996	-747.66584	-378.57218	806.27780	-544.37491	-377.30336	801.16047	-713.49162	
1019	10.18000000	-127.68670	499.16446	-394.97911	-120.00566	423.60427	-363.71420	-292.05855	105.23094	-383.46819	-347.94581	54.17540	-431.42345	-167.00786	37.62857	-310.14577	-122.03585	62.54349	-362.04000	-115.04311	499.24229	-886.54880	-113.90344	388.56595	-914.53077	-274.01338	101.05056	-892.45006	-342.47081	54.53672	-853.63748	-130.66748	32.00167	-947.66868	-100.89990	58.43082	-885.07642	-165.02597	319.73035	-354.20513	-188.93124	452.38712	-369.92655	-240.97620	348.80128	-366.11603	-193.93858	429.64030	-907.41143	-236.98376	317.60272	-911.60159	-278.29353	773.33710	-421.59678	-197.01263	703.54583	-407.67105	-220.15914	642.49973	-380.25764	-351.27023	685.93328	-431.18566	-262.78528	614.76477	-400.66675	-265.64949	777.28108	-852.20642	-163.57092	684.71231	-873.64489	-348.22620	690.95682	-850.91410	-243.76579	605.51533	-883.48299	-282.61309	852.53338	-508.35422	-437.93106	959.89014	-594.10727	-275.27027	848.10325	-764.85324	-437.02969	956.66120	-698.01466	-168.18861	1380.97578	-650.83308	-119.92927	1324.78409	-471.90817	-86.95065	1322.19232	-806.17040	-46.42963	1267.41239	-607.34887	-43.94329	1264.21640	-660.75211	-260.47866	1106.93399	-367.63831	-332.47899	1027.78843	-432.44859	-320.58515	1038.62535	-346.66731	-256.49494	889.70151	-324.65500	-209.46244	790.20900	-328.92668	-251.50192	781.16623	-317.11502	-192.44402	1103.71243	-922.47267	-276.57239	1030.44935	-877.69180	-251.02347	1037.41622	-945.78074	-211.85366	867.56248	-979.34711	-178.00169	776.18770	-979.51399	-215.62703	767.09716	-988.49583	-389.07988	811.57049	-517.47481	-379.28980	805.60964	-747.55768	-376.13500	813.58134	-544.26565	-374.66657	808.32069	-713.56109	
1020	10.19000000	-130.52828	500.91793	-395.47361	-122.73285	425.07041	-364.42211	-292.29423	105.25399	-383.29783	-347.98376	54.14908	-431.40277	-167.03162	37.58062	-310.12799	-122.07397	62.57181	-362.06362	-117.52722	500.79031	-886.17023	-115.98298	389.75665	-914.42248	-274.12028	101.02281	-892.61132	-342.49567	54.53162	-853.78301	-130.67165	31.97170	-947.68435	-100.91083	58.41030	-885.09377	-166.90211	321.02876	-354.47621	-191.81394	453.46847	-370.62068	-243.07167	349.56516	-366.35106	-196.10556	430.48833	-907.26248	-238.65407	317.88276	-911.51696	-276.69571	777.99515	-421.78443	-196.06077	706.58611	-407.61051	-220.77562	645.83483	-380.71531	-350.97736	691.87071	-431.99432	-263.87314	619.14483	-401.27688	-263.55583	781.99342	-852.59443	-163.22153	687.43412	-873.94675	-347.50437	697.06565	-851.05610	-244.67531	609.47922	-883.12466	-280.53219	859.86186	-508.85192	-435.76857	967.15393	-594.60250	-272.94534	855.67366	-765.33536	-434.82739	964.02841	-698.51261	-170.28863	1390.73467	-650.84726	-121.78413	1335.14571	-471.94712	-88.64592	1332.76814	-806.37446	-47.74820	1278.43066	-607.29472	-45.16622	1275.13545	-660.72824	-260.98760	1116.24697	-367.87246	-332.45901	1037.02853	-433.17298	-320.78943	1047.43089	-347.41012	-257.65059	898.15989	-325.30236	-211.56674	798.12216	-329.51415	-253.63396	789.55982	-317.75497	-192.96721	1113.36232	-922.12060	-276.70354	1040.15834	-877.27803	-251.25338	1046.70857	-944.98966	-213.08715	876.74210	-978.45716	-180.07474	784.96843	-978.64024	-217.74786	776.29886	-987.64955	-386.92134	818.81120	-518.08277	-376.94246	813.08025	-748.16333	-373.93421	820.88692	-544.83172	-372.40117	815.79466	-714.12319	
1021	10.20000000	-133.45062	502.66004	-396.02496	-125.58835	426.62417	-365.16416	-292.53183	105.32978	-383.00681	-348.02298	54.10181	-431.35391	-167.06753	37.50170	-310.10352	-122.08623	62.60526	-362.03228	-120.05053	502.31459	-885.77813	-118.04025	390.95412	-914.18768	-274.29746	101.01577	-892.88361	-342.52267	54.51831	-853.94893	-130.67345	31.94690	-947.69281	-100.93477	58.40401	-885.08560	-168.83951	322.28550	-354.83453	-194.76666	454.58766	-371.17866	-245.23516	350.07944	-366.74367	-198.21000	431.56198	-907.41806	-240.28483	318.36354	-911.55075	-275.04577	782.57266	-422.04157	-195.12003	709.54043	-407.51796	-221.68768	649.26704	-381.90016	-350.67199	697.61998	-432.70432	-264.97280	623.39889	-401.88140	-261.32840	786.59654	-852.84404	-162.73440	690.22903	-874.07320	-346.76480	703.15562	-851.13301	-245.55881	613.56294	-882.82801	-278.48835	867.06752	-509.39012	-433.53014	974.23594	-594.98747	-270.50437	863.29267	-765.92444	-432.52776	971.37259	-699.01152	-172.52585	1400.45948	-650.81081	-123.72670	1345.46624	-472.06502	-90.77823	1343.73622	-806.27835	-49.14044	1289.38801	-607.32435	-46.57383	1285.95499	-660.89326	-261.60248	1125.46818	-368.15135	-332.42473	1046.20196	-433.93158	-320.98523	1056.15092	-348.18319	-258.85994	906.63369	-325.87714	-213.61896	805.98359	-330.12264	-255.77010	797.89723	-318.39604	-193.56831	1122.94725	-921.63122	-276.91145	1049.75445	-876.78933	-251.55990	1055.92335	-944.14981	-214.33211	885.90283	-977.53001	-182.13945	793.75805	-977.72216	-219.80392	785.54244	-986.84154	-384.71555	825.85730	-518.79905	-374.48513	820.58102	-748.87918	-371.68645	827.93299	-545.52304	-370.05483	823.27159	-714.86380	
